<svg width="34" height="34" viewBox="0 0 34 34" fill="none" xmlns="http://www.w3.org/2000/svg">
<g id="fastfood_24px">
<path id="icon/maps/fastfood_24px" fill-rule="evenodd" clip-rule="evenodd" d="M25.5 1.41666V7.08332H32.5834L30.2459 30.5008C30.1042 31.6625 29.1267 32.5833 27.9367 32.5833H25.5V29.75H27.4692L29.4525 9.91666H15.9092L15.5834 7.08332H22.6667V1.41666H25.5ZM12.0417 12.7358C6.72919 12.7358 1.41669 15.5833 1.41669 21.25H22.6667C22.6667 15.5833 17.3542 12.7358 12.0417 12.7358ZM1.41669 31.1383C1.41669 31.9317 2.05419 32.5692 2.84752 32.5692H21.25C22.0434 32.5692 22.6809 31.9317 22.6809 31.1383V29.75H1.41669V31.1383ZM12.0417 15.5692C10.0442 15.5692 6.70085 16.2208 5.12835 18.4167H18.955C17.3825 16.2208 14.0392 15.5692 12.0417 15.5692ZM22.6667 24.0833V26.9167H1.41669V24.0833H22.6667Z" fill="#333333"/>
</g>
</svg>
